<?xml version="1.0" encoding="utf-8"?>
<svg xmlns="http://www.w3.org/2000/svg" xmlns:xlink="http://www.w3.org/1999/xlink"
     aria-label="Minecraft" role="img"
     viewBox="0 0 40 40" stroke-linecap="square" fill="none">

    <g id="a" transform="matrix(1.484375 0.859375 0 1.71875 5.9375 11.09375)">

        <path fill="#432" d="M.5.5h9v9h-9"/>

        <path stroke="#864" d="M2 8v1h2V8h5V7 H7V5"/>

        <path stroke="#643" d="M1 5zM2 9zM1 8V7h2V6h1M5 9h2V8H6V4M7 6h1v1M9 9zM9 4v1"/>

        <path stroke="#a75" d="M1 7h1M4 7h1M9 6z"/>

        <path stroke="#555" d="M5 5z"/>

        <path stroke="#593" d="M4 4V1h4v2H7V2H4v1H2v1"/>

        <path stroke="#6a4" d="M2 1h1M6 1zM7 2zM9 1v1"/>

        <path stroke="#7c5" d="M5 3zM3 2h1"/>

        <path stroke="#9c6" d="M1 1v1h1M8 1z"/>

    </g>

    <use xlink:href="#a" transform="matrix(-1 0 0 1 40.078125 0)" opacity=".7"/>

    <g transform="matrix(-1.484375 0.859375-1.484375-0.859375 34.921875 12.421875)">

        <path fill="#7b4" d="M.5.5h9v9h-9"/>

        <path stroke="#8c5" d="M1 1zM3 1zM4 7zM3 4v2H1v2h3v1h2V7M2 3h4V1H5v1h3M7 4v1H4M9 4v2H8v3"/>

        <path stroke="#ad7" d="M1 3v2M1 7zM1 9zM3 3zM4 4zM5 1zM5 3zM5 5v1M5 8v1M7 2v1M8 7h1"/>

    </g>
    <g transform="translate(16 16)">
        <path d="M19 10V7c0-1.103-.897-2-2-2h-3c0-1.654-1.346-3-3-3S8 3.346 8 5H5c-1.103 0-2 .897-2 2v4h1a2 2 0 0 1 0 4H3v4c0 1.103.897 2 2 2h4v-1a2 2 0 0 1 4 0v1h4c1.103 0 2-.897 2-2v-3c1.654 0 3-1.346 3-3s-1.346-3-3-3z" fill="#AADD77"/>
    </g>


</svg>